<?xml version="1.0" encoding="UTF-8" standalone="no"?>
<!-- Generator: Adobe Illustrator 19.0.0, SVG Export Plug-In . SVG Version: 6.00 Build 0)  -->

<svg
   xmlns:dc="http://purl.org/dc/elements/1.1/"
   xmlns:cc="http://creativecommons.org/ns#"
   xmlns:rdf="http://www.w3.org/1999/02/22-rdf-syntax-ns#"
   xmlns:svg="http://www.w3.org/2000/svg"
   xmlns="http://www.w3.org/2000/svg"
   xmlns:sodipodi="http://sodipodi.sourceforge.net/DTD/sodipodi-0.dtd"
   xmlns:inkscape="http://www.inkscape.org/namespaces/inkscape"
   version="1.1"
   id="Layer_1"
   x="0px"
   y="0px"
   viewBox="0 0 96 96"
   style="enable-background:new 0 0 96 96;"
   xml:space="preserve"
   inkscape:version="0.91 r13725"
   sodipodi:docname="trendr.svg"><metadata
     id="metadata3404"><rdf:RDF><cc:Work
         rdf:about=""><dc:format>image/svg+xml</dc:format><dc:type
           rdf:resource="http://purl.org/dc/dcmitype/StillImage" /><dc:title></dc:title></cc:Work></rdf:RDF></metadata><defs
     id="defs3402"><marker
       inkscape:stockid="TriangleOutM"
       orient="auto"
       refY="0.0"
       refX="0.0"
       id="TriangleOutM"
       style="overflow:visible"
       inkscape:isstock="true"><path
         id="path4383"
         d="M 5.77,0.0 L -2.88,5.0 L -2.88,-5.0 L 5.77,0.0 z "
         style="fill-rule:evenodd;stroke:#ffffff;stroke-width:1pt;stroke-opacity:1;fill:#ffffff;fill-opacity:1"
         transform="scale(0.4)" /></marker><marker
       inkscape:stockid="Arrow1Lstart"
       orient="auto"
       refY="0.0"
       refX="0.0"
       id="Arrow1Lstart"
       style="overflow:visible"
       inkscape:isstock="true"><path
         id="path4238"
         d="M 0.0,0.0 L 5.0,-5.0 L -12.5,0.0 L 5.0,5.0 L 0.0,0.0 z "
         style="fill-rule:evenodd;stroke:#000000;stroke-width:1pt;stroke-opacity:1;fill:#000000;fill-opacity:1"
         transform="scale(0.8) translate(12.5,0)" /></marker><marker
       inkscape:stockid="Arrow2Lend"
       orient="auto"
       refY="0.0"
       refX="0.0"
       id="Arrow2Lend"
       style="overflow:visible;"
       inkscape:isstock="true"><path
         id="path4259"
         style="fill-rule:evenodd;stroke-width:0.625;stroke-linejoin:round;stroke:#000000;stroke-opacity:1;fill:#000000;fill-opacity:1"
         d="M 8.7185878,4.0337352 L -2.2072895,0.016013256 L 8.7185884,-4.0017078 C 6.9730900,-1.6296469 6.9831476,1.6157441 8.7185878,4.0337352 z "
         transform="scale(1.1) rotate(180) translate(1,0)" /></marker><inkscape:perspective
       sodipodi:type="inkscape:persp3d"
       inkscape:vp_x="0 : 48 : 1"
       inkscape:vp_y="0 : 1000 : 0"
       inkscape:vp_z="96 : 48 : 1"
       inkscape:persp3d-origin="48 : 32 : 1"
       id="perspective3406" /></defs><sodipodi:namedview
     pagecolor="#ffffff"
     bordercolor="#666666"
     borderopacity="1"
     objecttolerance="10"
     gridtolerance="10"
     guidetolerance="10"
     inkscape:pageopacity="0"
     inkscape:pageshadow="2"
     inkscape:window-width="1683"
     inkscape:window-height="1011"
     id="namedview3400"
     showgrid="false"
     inkscape:zoom="9.8341823"
     inkscape:cx="33.2631"
     inkscape:cy="46.75238"
     inkscape:window-x="4"
     inkscape:window-y="0"
     inkscape:window-maximized="0"
     inkscape:current-layer="Layer_1" /><style
     type="text/css"
     id="style3392">
	.st0{fill:#333333;}
</style><g
     id="XMLID_2_"
     transform="translate(-2.3387811,0.8134891)"><rect
       id="XMLID_4_"
       x="35.200001"
       y="75"
       class="st0"
       width="6.9000001"
       height="3"
       style="fill:#333333" /><rect
       id="XMLID_5_"
       x="49"
       y="75"
       class="st0"
       width="6.9000001"
       height="3"
       style="fill:#333333" /><path
       id="XMLID_8_"
       class="st0"
       d="m 57.8,72.1 -2,-16.7 c 0,-2.2 -1.8,-3.9 -3.9,-3.9 l -12.8,0 c -2.2,0 -3.9,1.8 -3.9,3.9 l -2,16.7 c 0,2.2 1.8,2 3.9,2 l 16.7,0 c 2.3,0 4,0.2 4,-2 z M 45.9,63 c -1.9,0 -3.4,-1.5 -3.4,-3.4 0,-1.9 1.5,-3.4 3.4,-3.4 1.9,0 3.4,1.5 3.4,3.4 0.1,1.8 -1.5,3.4 -3.4,3.4 z"
       inkscape:connector-curvature="0"
       style="fill:#333333" /><path
       id="XMLID_11_"
       class="st0"
       d="m 58.1,42.6 1,0 1,0 4.2,0 c 0.8,0 1.5,-0.7 1.5,-1.5 l 0,-9.8 c 0,-0.8 -0.7,-1.5 -1.5,-1.5 l -2.8,0 -1,0 -1,0 0.3,-3 -27.5,0 2,18.3 c 0,2.2 1.8,4.3 3.9,4.3 l 15.7,0 c 2.2,0 3.9,-2.1 3.9,-4.3 l 0.3,-2.5 z m 1.1,-9.8 1,0 1,0 1.6,0 0,6.9 -2.4,0 -1,0 -1,0 0.8,-6.9 z"
       inkscape:connector-curvature="0"
       style="fill:#333333" /><path
       id="XMLID_12_"
       class="st0"
       d="m 32.3,24.9 27.5,0 c 1.1,0 2,-0.9 2,-2 0,-1.1 -0.9,-2 -2,-2 l -8.1,0 c 0.2,-0.3 0.3,-0.6 0.3,-1 0,-1.1 -0.9,-2 -2,-2 l -7.9,0 c -1.1,0 -2,0.9 -2,2 0,0.4 0.1,0.7 0.3,1 l -8.1,0 c -1.1,0 -2,0.9 -2,2 0,1.1 0.9,2 2,2 z"
       inkscape:connector-curvature="0"
       style="fill:#333333" /></g><path
     style="fill:none;fill-rule:evenodd;stroke:#ffffff;stroke-width:0.84395665;stroke-linecap:butt;stroke-linejoin:miter;stroke-miterlimit:4;stroke-dasharray:2.53186998, 0.84395666000000003;stroke-dashoffset:0;stroke-opacity:1;marker-end:url(#TriangleOutM)"
     d="m 33.690602,43.712384 9.201684,-8.067834 3.122,3.944275 7.312053,-7.619622"
     id="path3432"
     inkscape:connector-curvature="0" /></svg>